<svg width="245" height="138" viewBox="0 0 245 138" fill="none" xmlns="http://www.w3.org/2000/svg">
<path fill-rule="evenodd" clip-rule="evenodd" d="M10 0C4.47715 0 0 4.47715 0 10V62.6535C0.0701524 62.6948 0.137473 62.746 0.200476 62.8079L5.27287 67.7864C5.67224 68.1784 5.67224 68.8218 5.27287 69.2137L0.200473 74.1923C0.137471 74.2541 0.0701516 74.3053 0 74.3466V128C0 133.523 4.47715 138 10 138H235C240.523 138 245 133.521 245 127.998V74.3466C244.93 74.3053 244.863 74.2541 244.8 74.1923L239.727 69.2137C239.328 68.8218 239.328 68.1784 239.727 67.7864L244.8 62.8079C244.863 62.746 244.93 62.6948 245 62.6535V10.0019C245 4.4791 240.523 0 235 0H10Z" fill="white"/>
<g clip-path="url(#clip0_20082_834)">
<mask id="mask0_20082_834" style="mask-type:alpha" maskUnits="userSpaceOnUse" x="0" y="0" width="245" height="138">
<path fill-rule="evenodd" clip-rule="evenodd" d="M10 0C4.47715 0 0 4.47715 0 10V62.6535C0.0701519 62.6948 0.137472 62.746 0.200474 62.8079L5.27287 67.7864C5.67224 68.1784 5.67223 68.8218 5.27286 69.2137L0.200472 74.1923C0.13747 74.2541 0.0701511 74.3053 0 74.3466V128C0 133.523 4.47715 138 10 138H235C240.523 138 245 133.521 245 127.998V74.3466C244.93 74.3053 244.863 74.2541 244.8 74.1923L239.727 69.2137C239.328 68.8218 239.328 68.1784 239.727 67.7864L244.8 62.8079C244.863 62.746 244.93 62.6948 245 62.6535V10.0019C245 4.4791 240.523 0 235 0H10Z" fill="white"/>
</mask>
<g mask="url(#mask0_20082_834)">
<path fill-rule="evenodd" clip-rule="evenodd" d="M-0.245361 0.435744L81.4213 46.4357L96.4984 54.9281C96.6551 54.6336 96.8166 54.3419 96.9828 54.0533L81.9121 45.5645L0.245406 -0.435547L-0.245361 0.435744ZM148.769 53.6299C148.94 53.9158 149.106 54.2048 149.268 54.4967L163.579 46.4357L245.245 0.435744L244.755 -0.435547L163.088 45.5645L148.769 53.6299ZM149.268 83.5035C149.106 83.7954 148.94 84.0844 148.769 84.3703L163.088 92.4357L244.755 138.436L245.245 137.564L163.579 91.5645L149.268 83.5035ZM96.9828 83.9469C96.8166 83.6583 96.6551 83.3666 96.4984 83.0721L81.4213 91.5645L-0.245361 137.564L0.245406 138.436L81.9121 92.4357L96.9828 83.9469Z" fill="#1390E5" fill-opacity="0.2"/>
</g>
<g clip-path="url(#clip1_20082_834)">
<mask id="mask1_20082_834" style="mask-type:alpha" maskUnits="userSpaceOnUse" x="103" y="49" width="40" height="40">
<circle cx="123" cy="69" r="20" fill="#C4C4C4"/>
</mask>
<g mask="url(#mask1_20082_834)">
<path d="M113.5 75.5C113.5 76.6046 114.395 77.5 115.5 77.5H117.5V60.5H115.5C114.395 60.5 113.5 61.3954 113.5 62.5V75.5Z" fill="#1390E5" fill-opacity="0.2"/>
<path d="M132.5 62.5C132.5 61.3954 131.605 60.5 130.5 60.5H128.5V77.5H130.5C131.605 77.5 132.5 76.6046 132.5 75.5V62.5Z" fill="#1390E5" fill-opacity="0.2"/>
<path fill-rule="evenodd" clip-rule="evenodd" d="M115.5 61C114.672 61 114 61.6716 114 62.5V64H117V61H115.5ZM118 61V68.5H128V61H118ZM129 61V64H132V62.5C132 61.6716 131.328 61 130.5 61H129ZM132 65H129V68.5H132V65ZM132 69.5H129V73H132V69.5ZM132 74H129V77H130.5C131.328 77 132 76.3284 132 75.5V74ZM128 77V69.5H118V77H128ZM117 77V74H114V75.5C114 76.3284 114.672 77 115.5 77H117ZM114 73H117V69.5H114V73ZM114 68.5H117V65H114V68.5ZM113 62.5C113 61.1193 114.119 60 115.5 60H130.5C131.881 60 133 61.1193 133 62.5V75.5C133 76.8807 131.881 78 130.5 78H115.5C114.119 78 113 76.8807 113 75.5V62.5Z" fill="#1390E5"/>
</g>
</g>
</g>
<mask id="path-7-inside-1_20082_834" fill="white">
<path fill-rule="evenodd" clip-rule="evenodd" d="M0 10C0 4.47717 4.47715 0 10 0H235C240.523 0 245 4.47934 245 10.0022V63.3505C244.938 63.3867 244.879 63.4307 244.822 63.4828L239.797 68.116C239.368 68.5121 239.368 69.1904 239.797 69.5864L244.822 74.2196C244.879 74.2717 244.938 74.3157 245 74.352V127.702C245 133.225 240.523 137.704 235 137.704H10C4.47715 137.704 0 133.227 0 127.704V74.352C0.0617231 74.3157 0.121344 74.2717 0.177878 74.2196L5.20269 69.5864C5.63218 69.1904 5.63218 68.5121 5.20269 68.116L0.177878 63.4828C0.121344 63.4307 0.0617231 63.3867 0 63.3504V10Z"/>
</mask>
<path d="M245 63.3505L245.507 64.2125L246 63.9226V63.3505H245ZM244.822 63.4828L244.144 62.7476L244.144 62.7477L244.822 63.4828ZM239.797 68.116L240.475 68.8512V68.8512L239.797 68.116ZM239.797 69.5864L240.475 68.8512V68.8512L239.797 69.5864ZM244.822 74.2196L244.144 74.9548L244.144 74.9548L244.822 74.2196ZM245 74.352H246V73.7798L245.507 73.4899L245 74.352ZM0 74.352L-0.506788 73.4899L-1 73.7798V74.352H0ZM0.177879 74.2196L-0.499999 73.4844L-0.500024 73.4844L0.177879 74.2196ZM5.20269 69.5864L4.52481 68.8512H4.52481L5.20269 69.5864ZM5.20269 68.116L4.52481 68.8512H4.52481L5.20269 68.116ZM0.177879 63.4828L0.855756 62.7477H0.855754L0.177879 63.4828ZM0 63.3504H-1V63.9226L-0.506788 64.2125L0 63.3504ZM10 -1C3.92487 -1 -1 3.92488 -1 10H1C1 5.02945 5.02944 1 10 1V-1ZM235 -1H10V1H235V-1ZM246 10.0022C246 3.92735 241.075 -1 235 -1V1C239.97 1 244 5.03134 244 10.0022H246ZM246 63.3505V10.0022H244V63.3505H246ZM245.5 64.2181C245.505 64.2135 245.507 64.2122 245.507 64.2125L244.493 62.4884C244.369 62.5612 244.252 62.6479 244.144 62.7476L245.5 64.2181ZM240.475 68.8512L245.5 64.218L244.144 62.7477L239.119 67.3809L240.475 68.8512ZM240.475 68.8512V68.8512L239.119 67.3809C238.26 68.1729 238.26 69.5295 239.119 70.3216L240.475 68.8512ZM245.5 73.4844L240.475 68.8512L239.119 70.3216L244.144 74.9548L245.5 73.4844ZM245.507 73.4899C245.507 73.4902 245.505 73.4889 245.5 73.4844L244.144 74.9548C244.252 75.0545 244.369 75.1412 244.493 75.2141L245.507 73.4899ZM246 127.702V74.352H244V127.702H246ZM235 138.704C241.075 138.704 246 133.777 246 127.702H244C244 132.673 239.97 136.704 235 136.704V138.704ZM10 138.704H235V136.704H10V138.704ZM-1 127.704C-1 133.779 3.92486 138.704 10 138.704V136.704C5.02943 136.704 1 132.675 1 127.704H-1ZM-1 74.352V127.704H1V74.352H-1ZM-0.500024 73.4844C-0.504808 73.4888 -0.507167 73.4901 -0.506788 73.4899L0.506788 75.214C0.630613 75.1413 0.747497 75.0546 0.855781 74.9547L-0.500024 73.4844ZM4.52481 68.8512L-0.499999 73.4844L0.855756 74.9548L5.88057 70.3216L4.52481 68.8512ZM4.52481 68.8512L4.52481 68.8512L5.88056 70.3216C6.73956 69.5295 6.73956 68.1729 5.88056 67.3809L4.52481 68.8512ZM-0.499999 64.218L4.52481 68.8512L5.88057 67.3809L0.855756 62.7477L-0.499999 64.218ZM-0.506788 64.2125C-0.507189 64.2123 -0.504817 64.2136 -0.499997 64.218L0.855754 62.7477C0.747506 62.6479 0.630635 62.5612 0.506788 62.4884L-0.506788 64.2125ZM-1 10V63.3504H1V10H-1Z" fill="#35A2EC" mask="url(#path-7-inside-1_20082_834)"/>
<defs>
<clipPath id="clip0_20082_834">
<rect width="245" height="138" fill="white"/>
</clipPath>
<clipPath id="clip1_20082_834">
<rect width="40" height="40" fill="white" transform="translate(103 49)"/>
</clipPath>
</defs>
</svg>
